<?xml version="1.0" standalone="no"?><!DOCTYPE svg PUBLIC "-//W3C//DTD SVG 1.1//EN" "http://www.w3.org/Graphics/SVG/1.1/DTD/svg11.dtd"><svg t="1562983521954" class="icon" viewBox="0 0 1024 1024" version="1.1" xmlns="http://www.w3.org/2000/svg" p-id="1999" width="64" height="64" xmlns:xlink="http://www.w3.org/1999/xlink"><defs><style type="text/css"></style></defs><path d="M1011.68724 225.837978a39.107852 39.107852 0 0 0 11.695806-27.923738V40.532548a39.327148 39.327148 0 0 0-39.327148-39.400248h-150.364209a39.83884 39.83884 0 0 0-37.134185 10.380028L510.521942 298.644372 226.240752 13.924588a39.765741 39.765741 0 0 0-37.061086-10.306929H39.25405A39.25405 39.25405 0 0 0 0 42.79861v156.577606c0 10.964818 4.459026 20.760056 11.695806 27.923737l0.365494 0.584791L296.781083 513.189317 119.882014 690.965572l-49.414781-49.707176a40.716025 40.716025 0 0 0-57.309451 57.528747l126.680201 127.703584-125.583719 127.557387a40.789124 40.789124 0 0 0 0 57.674944 40.42363 40.42363 0 0 0 57.30945 0l125.58372-127.557386 126.534004 127.557386a40.716025 40.716025 0 0 0 57.30945-57.528747l-47.148719-47.587311 177.776255-178.214848 176.533576 176.606674-47.148719 47.441114a40.496729 40.496729 0 1 0 57.30945 57.38255l126.241609-126.899498 124.998929 126.460905a40.569828 40.569828 0 1 0 57.38255-57.382549l-125.218226-126.534004 126.460905-127.118794a40.496729 40.496729 0 1 0-57.30945-57.38255l-49.341683 49.487881L725.139987 513.774108l286.035561-287.278241c0.365494-0.146198 0.438593-0.511692 0.584791-0.657889zM78.581198 179.639543V81.906462h101.168724l273.681866 274.120459-99.195056 99.706748-275.655534-276.094126z m765.929111 568.196887l-99.195056 99.706748L568.708579 670.936504 668.049833 571.083558l176.387378 176.679773zM276.605818 848.858956l-99.487452-100.14534 666.149264-668.707722h101.607317v98.025476L276.532719 848.858956z" p-id="2000" fill="#1296db"></path></svg>