<?xml version="1.0" standalone="no"?><!DOCTYPE svg PUBLIC "-//W3C//DTD SVG 1.1//EN" "http://www.w3.org/Graphics/SVG/1.1/DTD/svg11.dtd"><svg t="1567411794855" class="icon" viewBox="0 0 1024 1024" version="1.1" xmlns="http://www.w3.org/2000/svg" p-id="2072" width="64" height="64" xmlns:xlink="http://www.w3.org/1999/xlink"><defs><style type="text/css"></style></defs><path d="M748.4 161.4c18.5 0 33.7 13.9 35.7 31.9 0.2 0.4 0.3 0.7 0.3 0.8v182.8s95-54.6 121.3-69.7c0.3-0.1 0.7-0.1 1-0.2 5.2-2.9 11.2-4.6 17.6-4.6 19 0 34.6 14.7 35.9 33.4 0.1 0.2 0.1 0.4 0.2 0.6v351.1c0 0.2-0.1 0.3-0.1 0.5-0.6 19.4-16.4 34.9-36 34.9-7.3 0-14.2-2.2-19.9-6-0.2-0.1-0.5-0.2-0.7-0.3-28.8-16.5-119.3-68.5-119.3-68.5s0.2 178 0.2 179.3c0 19.8-16 35.9-35.7 36-0.4 0-0.7 0.1-1 0.1H101.3l-0.1-0.1h-0.5c-19.9 0-36-16.1-36-36l-0.3-630c0-19.9 16.1-36 36-36h648z m-35.9 71.9h-576v558.4h576V233.3z m176 166.5l-104 59.7v106l104 59.6V399.8z m-680-103.2h112c4.4 0 8 3.6 8 8v55.9c0 4.4-3.6 8-8 8h-112c-4.4 0-8-3.6-8-8v-55.9c0-4.4 3.6-8 8-8z" fill="#ffffff" p-id="2073"></path></svg>