<?xml version="1.0" standalone="no"?><!DOCTYPE svg PUBLIC "-//W3C//DTD SVG 1.1//EN" "http://www.w3.org/Graphics/SVG/1.1/DTD/svg11.dtd"><svg t="1562139456110" class="icon" viewBox="0 0 1024 1024" version="1.1" xmlns="http://www.w3.org/2000/svg" p-id="4851" xmlns:xlink="http://www.w3.org/1999/xlink" width="64" height="64"><defs><style type="text/css"></style></defs><path d="M512.183 1012.324c-272.613 0-494.382-221.828-494.382-494.445s221.766-494.382 494.382-494.382 494.382 221.766 494.382 494.382-221.766 494.445-494.382 494.445zM512.183 85.884c-238.21 0-432.059 193.785-432.059 432.059s193.851 432.127 432.059 432.127 432.059-193.851 432.059-432.127-193.785-432.059-432.059-432.059z" p-id="4852" fill="#8a8a8a"></path><path d="M737.623 705.888l-187.989-187.932 187.989-187.932-37.442-37.442-187.932 187.932-187.932-187.932-37.442 37.442 187.932 187.932-187.989 187.989 37.442 37.442 187.989-187.989 187.932 187.932z" p-id="4853" fill="#8a8a8a"></path></svg>